<?xml version="1.0" encoding="UTF-8" standalone="no"?>
<!-- Created with Inkscape (http://www.inkscape.org/) -->

<svg
   xmlns:dc="http://purl.org/dc/elements/1.1/"
   xmlns:cc="http://creativecommons.org/ns#"
   xmlns:rdf="http://www.w3.org/1999/02/22-rdf-syntax-ns#"
   xmlns:svg="http://www.w3.org/2000/svg"
   xmlns="http://www.w3.org/2000/svg"
   xmlns:sodipodi="http://sodipodi.sourceforge.net/DTD/sodipodi-0.dtd"
   xmlns:inkscape="http://www.inkscape.org/namespaces/inkscape"
   width="136.06268"
   height="136.06265"
   viewBox="0 0 35.99992 35.999908"
   version="1.1"
   id="svg70813"
   inkscape:version="0.92.0 r15299"
   sodipodi:docname="bupa.svg">
  <defs
     id="defs70807" />
  <sodipodi:namedview
     id="base"
     pagecolor="#ffffff"
     bordercolor="#666666"
     borderopacity="1.0"
     inkscape:pageopacity="0.0"
     inkscape:pageshadow="2"
     inkscape:zoom="3.917313"
     inkscape:cx="68.031341"
     inkscape:cy="68.031326"
     inkscape:document-units="mm"
     inkscape:current-layer="layer1"
     showgrid="false"
     fit-margin-top="0"
     fit-margin-left="0"
     fit-margin-right="0"
     fit-margin-bottom="0"
     units="px"
     inkscape:window-width="1280"
     inkscape:window-height="744"
     inkscape:window-x="-4"
     inkscape:window-y="-4"
     inkscape:window-maximized="1" />
  <metadata
     id="metadata70810">
    <rdf:RDF>
      <cc:Work
         rdf:about="">
        <dc:format>image/svg+xml</dc:format>
        <dc:type
           rdf:resource="http://purl.org/dc/dcmitype/StillImage" />
        <dc:title></dc:title>
      </cc:Work>
    </rdf:RDF>
  </metadata>
  <g
     inkscape:label="Layer 1"
     inkscape:groupmode="layer"
     id="layer1"
     transform="translate(-96.904802,-169.38695)">
    <g
       id="g70828">
      <path
         inkscape:connector-curvature="0"
         id="path70744"
         style="fill:#00aeef;fill-opacity:0;fill-rule:nonzero;stroke:none;stroke-width:0.35277778"
         d="M 96.904802,205.38686 H 132.90472 V 169.38695 H 96.904802 Z" />
      <g
         transform="matrix(0.35277777,0,0,-0.35277777,115.10884,178.72427)"
         id="g70746">
        <path
           inkscape:connector-curvature="0"
           id="path70748"
           style="fill:#ffffff;fill-opacity:1;fill-rule:nonzero;stroke:none"
           d="M 0,0 C 2.32,0 3.563,1.026 4.319,2.197 L 4.277,2.019 C 4.058,0.921 4.972,0.248 5.832,0.248 H 6.578 L 8.652,12.044 H 6.084 L 5.742,10.245 C 5.278,11.174 3.97,12.289 1.855,12.289 -1.879,12.289 -4.092,9.213 -4.463,5.936 -4.887,2.19 -2.468,0 0,0 M 2.225,10.366 C 6.528,10.127 5.127,1.904 0.753,2.147 -3.203,2.367 -1.973,10.6 2.225,10.366 m -35.4,2.475 c 0,2.668 -1.714,3.91 -4.723,3.91 -1.85,0 -4.763,0.005 -5.825,0.005 L -46.66,0.248 c 0.363,0 3.539,0.001 5.333,0.002 1.218,0 2.379,0.04 3.033,0.177 2.992,0.632 4.206,2.808 4.447,4.404 0.334,2.21 -1.061,3.671 -2.646,4.025 1.19,0.257 3.318,1.484 3.318,3.985 M -39.432,2.275 c -0.335,-0.081 -0.869,-0.126 -1.986,-0.126 h -1.941 l 0.981,5.535 h 2.878 c 3.798,0 3.452,-4.569 0.068,-5.409 m 1.129,7.526 C -38.669,9.68 -39.156,9.646 -40.042,9.646 h -1.987 l 0.932,5.282 h 2.6 c 3.119,0 2.875,-4.245 0.194,-5.127 m 16.463,2.232 h -0.767 c 0,0 -1.131,-6.482 -1.258,-7.22 -0.274,-1.588 -1.039,-2.675 -3.19,-2.675 -1.221,0 -2.414,0.739 -2.135,2.394 0.11,0.64 0.92,5.35 0.989,5.73 0.226,1.274 -0.859,1.771 -1.754,1.771 h -0.678 c -0.166,-0.985 -0.911,-5.129 -1.194,-6.753 -0.116,-0.653 -0.158,-1.316 -0.108,-1.746 0.254,-2.2 2.187,-3.543 4.578,-3.543 4.127,0 5.679,2.156 6.173,4.719 0.162,0.844 0.944,5.121 1.005,5.552 0.179,1.274 -0.871,1.771 -1.661,1.771 m 4.247,-16.44 1.197,6.507 c 0.465,-0.929 1.792,-2.109 3.908,-2.109 3.808,0 6.165,2.972 6.401,6.453 0.252,3.7 -1.922,5.83 -4.443,5.83 -2.186,0 -3.677,-1.064 -4.436,-2.171 l 0.032,0.159 c 0.241,1.138 -0.73,1.771 -1.554,1.771 h -0.816 c 0,0 -2.22,-12.697 -2.524,-14.225 -0.36,-1.797 1.099,-2.215 1.56,-2.215 z m 6.208,14.566 c 3.955,-0.221 2.725,-8.477 -1.474,-8.244 -4.301,0.238 -2.904,8.485 1.474,8.244 M 43.939,-4.717 c -1.102,0 -2.602,0.063 -3.497,0.368 -1.056,0.362 -1.988,1.08 -2.975,1.839 -0.495,0.379 -1.006,0.775 -1.559,1.141 -0.673,0.447 -1.233,0.656 -1.767,0.656 -0.72,0 -1.42,-0.391 -2.272,-1.269 -1.151,-1.185 -2.986,-3.875 -3.719,-4.976 -0.048,-0.068 -0.11,-0.144 -0.203,-0.144 -0.18,0 -0.184,0.235 -0.184,0.312 -0.036,3.079 -0.519,19.881 -0.856,24.898 -0.149,2.219 -0.838,3.597 -1.799,3.597 -0.772,0 -1.929,-1.027 -2.653,-3.922 -1.843,-7.368 -5.774,-23.75 -7.464,-32.071 -0.05,-0.229 -0.308,-0.227 -0.355,0 -0.189,0.851 -0.355,1.816 -0.514,2.629 -0.505,2.566 -0.942,4.783 -1.803,6.002 -0.984,1.386 -2.436,1.473 -4.197,0.306 C 7.733,-5.609 7.359,-5.931 6.964,-6.273 5.833,-7.245 4.556,-8.35 2.433,-8.35 h -20.749 l -0.509,-2.75 H 3.008 c 2.232,0 4.302,1.285 5.539,2.172 0.627,0.45 1.061,0.711 1.409,0.711 0.479,0 0.694,-0.487 0.872,-1.219 0.088,-0.359 0.195,-0.855 0.316,-1.428 0.414,-1.9 1.035,-4.895 1.823,-6.886 0.369,-0.927 0.913,-1.439 1.536,-1.439 0.954,0 1.928,1.128 2.477,2.874 0.736,2.327 5.151,21.454 7.013,29.465 0.077,0.328 0.118,0.514 0.122,0.528 0.033,0.141 0.127,0.235 0.238,0.235 0.097,0 0.206,-0.083 0.21,-0.264 l 0.002,-0.031 c 0.142,-8.106 0.545,-22.341 1.148,-23.803 0.333,-0.808 0.844,-1.236 1.479,-1.236 0.735,0 1.618,0.592 2.246,1.508 0.316,0.46 0.719,1.062 1.146,1.696 1.054,1.567 2.249,3.34 2.601,3.719 0.526,0.558 1.13,0.559 1.989,-0.027 0.125,-0.084 0.274,-0.192 0.448,-0.318 0.916,-0.664 2.448,-1.578 4.169,-2.052 1.141,-0.313 2.61,-0.379 3.639,-0.379 0.665,0 1.372,0.027 1.578,0.04 l 0.473,2.549 c -0.249,-0.012 -0.92,-0.032 -1.542,-0.032" />
      </g>
    </g>
  </g>
</svg>
